<svg width="640" height="420" viewBox="0 0 640 420" fill="none" xmlns="http://www.w3.org/2000/svg">
  <rect width="640" height="420" rx="28" fill="#f6f2ea"/>
  <rect x="30" y="280" width="580" height="100" rx="20" fill="#e9e2d5"/>
  <rect x="85" y="130" width="220" height="170" rx="14" fill="#ffffff" stroke="#e0d6c4" stroke-width="4"/>
  <rect x="345" y="95" width="210" height="205" rx="14" fill="#fffaf2" stroke="#e0d6c4" stroke-width="4"/>
  <rect x="115" y="165" width="65" height="95" rx="8" fill="#f2e8da"/>
  <rect x="205" y="165" width="65" height="95" rx="8" fill="#f2e8da"/>
  <rect x="380" y="130" width="55" height="130" rx="8" fill="#f2e8da"/>
  <rect x="460" y="130" width="55" height="130" rx="8" fill="#f2e8da"/>
  <path d="M85 130L195 60L305 130" fill="#eddcc4"/>
  <path d="M345 95L450 38L555 95" fill="#e8d3b1"/>
  <circle cx="520" cy="58" r="24" fill="#e8734a" opacity="0.85"/>
  <rect x="495" y="300" width="20" height="48" rx="8" fill="#8f7b60"/>
  <circle cx="505" cy="285" r="28" fill="#9ab07f"/>
  <text x="46" y="60" font-family="Arial, sans-serif" font-size="30" font-weight="700" fill="#2d2d2d">Saudi Arabia Virtual Office</text>
</svg>